<?xml version="1.0" encoding="UTF-8"?>
<svg width="377px" height="81px" viewBox="0 0 377 81" version="1.1" xmlns="http://www.w3.org/2000/svg" xmlns:xlink="http://www.w3.org/1999/xlink">
    <!-- Generator: Sketch 59 (86127) - https://sketch.com -->
    <title>brimstonelogo</title>
    <desc>Created with Sketch.</desc>
    <defs>
        <path d="M3.296,41 L3.296,11.521 L27.0766406,11.521 C28.6504506,11.521 30.0004475,12.0862391 31.1266719,13.2167344 C32.2528963,14.3472296 32.816,15.6856954 32.816,17.2321719 L32.816,25.1765625 C32.816,26.7234661 32.2528963,28.0620386 31.1266719,29.1923203 C30.0004475,30.322602 28.6504506,30.8877344 27.0766406,30.8877344 L8.708,30.9159219 L8.708,41 L3.296,41 Z M9.95479783,25.4337623 L25.91775,25.4347344 C26.6753996,25.4347344 27.1031193,25.388076 27.2009219,25.2947578 C27.2987244,25.2014396 27.347625,24.7759621 27.347625,24.0183125 L27.347625,18.3622344 C27.347625,17.6050118 27.2987244,17.1775057 27.2009219,17.0797031 C27.1031193,16.9819006 26.6753996,16.933 25.91775,16.933 L10.1372344,16.933 C9.38001184,16.933 8.9525057,16.9819006 8.85470313,17.0797031 C8.75690055,17.1775057 8.708,17.6050118 8.708,18.3622344 L8.708,24.0183125 L8.71207505,24.3694564 C8.72565857,24.9085613 8.77320098,25.2169927 8.85470313,25.2947578 C8.94435548,25.3802995 9.31105042,25.426634 9.95479783,25.4337623 L9.95479783,25.4337623 Z M60.986,41 L60.986,11.521 L84.7666406,11.521 C86.3404506,11.521 87.6904475,12.0862391 88.8166719,13.2167344 C89.9428963,14.3472296 90.506,15.6856954 90.506,17.2321719 L90.506,25.1765625 C90.506,26.7234661 89.9428963,28.0620386 88.8166719,29.1923203 C87.6904475,30.322602 86.3404506,30.8877344 84.7666406,30.8877344 L83.167,30.8877344 L90.45475,39.4894063 L90.45475,41 L84.5706094,41 L76.0797656,30.8877344 L66.398,30.90375 L66.398,41 L60.986,41 Z M67.6447978,25.4337623 L83.60775,25.4347344 C84.3653996,25.4347344 84.7909839,25.388076 84.8845156,25.2947578 C84.970253,25.2092162 85.0166935,24.8445684 85.0238382,24.2008047 L85.0248125,18.3622344 C85.0248125,17.6050118 84.9780473,17.1775057 84.8845156,17.0797031 C84.7909839,16.9819006 84.3653996,16.933 83.60775,16.933 L67.8272344,16.933 C67.0700118,16.933 66.6425057,16.9819006 66.5447031,17.0797031 C66.4469006,17.1775057 66.398,17.6050118 66.398,18.3622344 L66.398,24.0183125 C66.398,24.7759621 66.4469006,25.2014396 66.5447031,25.2947578 C66.6343555,25.3802995 67.0010504,25.426634 67.6447978,25.4337623 L67.6447978,25.4337623 Z M125.781172,41 C124.207362,41 122.862063,40.4415941 121.745234,39.3247656 C120.628406,38.2079371 120.07,36.8626381 120.07,35.2888281 L120.07,17.1911719 C120.07,15.6173619 120.628406,14.2720629 121.745234,13.1552344 C122.862063,12.0384059 124.207362,11.48 125.781172,11.48 L143.878828,11.48 C145.433846,11.48 146.774447,12.0384059 147.900672,13.1552344 C149.026896,14.2720629 149.59,15.6173619 149.59,17.1911719 L149.59,35.2888281 C149.59,36.8626381 149.026896,38.2079371 147.900672,39.3247656 C146.774447,40.4415941 145.433846,41 143.878828,41 L125.781172,41 Z M126.728798,35.5587937 L142.69175,35.5598125 C143.4494,35.5598125 143.877119,35.5109119 143.974922,35.4131094 C144.064574,35.323457 144.113135,34.9565826 144.120606,34.3124764 L144.121625,18.3500625 C144.121625,17.5924129 144.072724,17.1646932 143.974922,17.0668906 C143.877119,16.9690881 143.4494,16.9201875 142.69175,16.9201875 L126.911234,16.9201875 C126.154012,16.9201875 125.726506,16.9690881 125.628703,17.0668906 C125.539051,17.156543 125.49049,17.5234174 125.483019,18.1675236 L125.482,34.1299375 C125.482,34.8875871 125.530901,35.3153068 125.628703,35.4131094 C125.718355,35.5027617 126.08505,35.5513228 126.728798,35.5587937 L126.728798,35.5587937 Z M182.979172,41 C181.405362,41 180.060063,40.4415941 178.943234,39.3247656 C177.826406,38.2079371 177.268,36.8626381 177.268,35.2888281 L177.268,31.9345156 L182.68,31.9345156 L182.68,34.1299375 C182.68,34.8875871 182.728901,35.3153068 182.826703,35.4131094 C182.924506,35.5109119 183.352012,35.5598125 184.109234,35.5598125 L199.88975,35.5598125 C200.6474,35.5598125 201.075119,35.5109119 201.172922,35.4131094 C201.262574,35.323457 201.311135,34.9565826 201.318606,34.3124764 L201.319625,11.48 L206.788,11.48 L206.788,35.2888281 C206.788,36.8626381 206.224896,38.2079371 205.098672,39.3247656 C203.972447,40.4415941 202.631846,41 201.076828,41 L182.979172,41 Z M236.762,41 L236.762,11.48 L263.925141,11.48 L263.925141,16.9201875 L242.230375,16.9201875 L242.230375,23.5135 L259.687406,23.5135 L259.687406,28.9665 L242.230375,28.9665 L242.230375,35.5598125 L263.925141,35.5598125 L263.925141,41 L236.762,41 Z M293.427,41 L293.427,11.48 L298.88,11.48 L298.88,23.5135 L305.820531,23.5135 L315.904609,11.48 L321.807328,11.48 L321.807328,13.0187813 L310.709781,26.24 L321.820141,39.4612188 L321.820141,41 L315.904609,41 L305.820531,28.9665 L298.88,28.9665 L298.88,41 L293.427,41 Z M361.933312,41 L361.933312,16.9201875 L349.887,16.9201875 L349.887,11.48 L379.407,11.48 L379.407,16.9201875 L367.3735,16.9201875 L367.3735,41 L361.933312,41 Z" id="path-1"></path>
        <path d="M3.304,92 L3.304,51.68 L34.202875,51.68 C36.3268023,51.68 38.1578673,52.4427007 39.696125,53.968125 C41.2343827,55.4935493 42.0035,57.3310309 42.0035,59.480625 L42.0035,67.353875 C42.0035,67.8508775 41.9639796,68.3257061 41.8849375,68.778375 C41.8058954,69.2310439 41.6800425,69.6554147 41.507375,70.0515 C42.1484615,70.9235877 42.6614981,71.8204537 43.0465,72.742125 C43.4315019,73.6637963 43.624,74.591287 43.624,75.524625 L43.624,84.199375 C43.624,86.3489691 42.8548827,88.1864507 41.316625,89.711875 C39.7783673,91.2372993 37.9344691,92 35.784875,92 L3.304,92 Z M12.4333919,84.5684777 L34.202,84.5695 C35.2368385,84.5695 35.821041,84.502709 35.954625,84.369125 C36.088209,84.235541 36.155,83.6513385 36.155,82.6165 L36.155,77.146 L36.1509107,76.7300877 C36.1345537,75.9534428 36.0691256,75.5078756 35.954625,75.393375 C35.8305827,75.2693327 35.3179969,75.2028824 34.4168536,75.1940223 L12.648125,75.193 C11.6138698,75.193 11.029959,75.259791 10.896375,75.393375 C10.762791,75.526959 10.696,76.1111615 10.696,77.146 L10.696,82.6165 L10.7000893,83.0324123 C10.7164463,83.8090572 10.7818744,84.2546244 10.896375,84.369125 C11.0204173,84.4931673 11.5327516,84.5596176 12.4333919,84.5684777 Z M12.4333919,67.7614799 L32.582375,67.7625 C33.6172135,67.7625 34.1983535,67.6958548 34.3258125,67.5625625 C34.4441673,67.438791 34.5075708,66.9263504 34.5160246,66.0252264 L34.517,61.0635 C34.517,60.0286615 34.4532715,59.444459 34.3258125,59.310875 C34.1983535,59.177291 33.6172135,59.1105 32.582375,59.1105 L12.648125,59.1105 C11.6138698,59.1105 11.029959,59.177291 10.896375,59.310875 C10.7723327,59.4349173 10.7058824,59.9475031 10.6970223,60.8486464 L10.696,65.810375 C10.696,66.8452135 10.762791,67.4292702 10.896375,67.5625625 C11.0204173,67.686334 11.5327516,67.7526392 12.4333919,67.7614799 L12.4333919,67.7614799 Z M49.672,92 L49.672,51.736 L82.152875,51.736 C84.3024691,51.736 86.1463673,52.5080339 87.684625,54.052125 C89.2228827,55.5962161 89.992,57.4243644 89.992,59.536625 L89.992,70.3875 C89.992,72.5003439 89.2228827,74.3286381 87.684625,75.8724375 C86.1463673,77.4162369 84.3024691,78.188125 82.152875,78.188125 L79.968,78.188125 L89.922,89.93675 L89.922,92 L81.885125,92 L70.287875,78.188125 L57.064,78.21 L57.064,92 L49.672,92 Z M58.8013919,70.7391496 L80.57,70.740125 C81.6048385,70.740125 82.1861244,70.6763965 82.313875,70.5489375 C82.4325006,70.4305827 82.4960492,69.9210438 82.5045223,69.0203068 L82.5055,61.080125 C82.5055,60.0458698 82.4416256,59.461959 82.313875,59.328375 C82.1952494,59.2043327 81.6855654,59.1378824 80.784809,59.1290223 L59.016125,59.128 C57.9818698,59.128 57.397959,59.194791 57.264375,59.328375 C57.1403327,59.4524173 57.0738824,59.9647516 57.0650223,60.8653919 L57.064,68.8055 C57.064,69.8403385 57.130791,70.4214785 57.264375,70.5489375 C57.3884173,70.6672923 57.9007516,70.7306958 58.8013919,70.7391496 L58.8013919,70.7391496 Z M95.704,92 L95.704,51.68 L103.0365,51.68 L103.0365,92 L95.704,92 Z M107.912,92 L107.912,51.68 L116.018875,51.68 L130.640125,69.107375 L145.222875,51.68 L153.369125,51.68 L153.369125,92 L145.93775,92 L145.93775,62.4285 L130.640125,80.657375 L115.304,62.467 L115.304,92 L107.912,92 Z M167.516125,92 C165.366531,92 163.529049,91.2372993 162.003625,89.711875 C160.478201,88.1864507 159.7155,86.3489691 159.7155,84.199375 L159.7155,81.126375 L167.1075,81.126375 L167.1075,82.6165 C167.1075,83.6513385 167.174291,84.235541 167.307875,84.369125 C167.441459,84.502709 168.025661,84.5695 169.0605,84.5695 L190.614375,84.5695 C191.649214,84.5695 192.23327,84.502709 192.366562,84.369125 C192.499855,84.235541 192.5665,83.6513385 192.5665,82.6165 L192.5665,77.498625 C192.5665,76.4643698 192.499855,75.8833756 192.366562,75.755625 C192.242791,75.6369994 191.73035,75.5734508 190.829226,75.5649777 L167.516125,75.564 C165.366531,75.564 163.529049,74.7983827 162.003625,73.267125 C160.478201,71.7358673 159.7155,69.9013024 159.7155,67.763375 L159.7155,59.480625 C159.7155,57.3310309 160.478201,55.4935493 162.003625,53.968125 C163.529049,52.4427007 165.366531,51.68 167.516125,51.68 L192.234875,51.68 C194.358802,51.68 196.189867,52.4427007 197.728125,53.968125 C199.266383,55.4935493 200.0355,57.3310309 200.0355,59.480625 L200.0355,62.553625 L192.5665,62.553625 L192.5665,61.0635 C192.5665,60.0286615 192.499855,59.444459 192.366562,59.310875 C192.23327,59.177291 191.649214,59.1105 190.614375,59.1105 L169.0605,59.1105 C168.025661,59.1105 167.441459,59.177291 167.307875,59.310875 C167.174291,59.444459 167.1075,60.0286615 167.1075,61.0635 L167.1075,66.1805 C167.1075,67.2153385 167.174291,67.7966244 167.307875,67.924375 C167.431917,68.0430006 167.944503,68.1065492 168.845646,68.1150223 L192.234875,68.116 C194.358802,68.116 196.189867,68.8816173 197.728125,70.412875 C199.266383,71.9441327 200.0355,73.7786976 200.0355,75.916625 L200.0355,84.199375 C200.0355,86.3489691 199.266383,88.1864507 197.728125,89.711875 C196.189867,91.2372993 194.358802,92 192.234875,92 L167.516125,92 Z M220.581074,92 L220.581074,59.1105 L204.127574,59.1105 L204.127574,51.68 L244.447574,51.68 L244.447574,59.1105 L228.011574,59.1105 L228.011574,92 L220.581074,92 Z M256.336199,92 C254.186605,92 252.349124,91.2372993 250.823699,89.711875 C249.298275,88.1864507 248.535574,86.3489691 248.535574,84.199375 L248.535574,59.480625 C248.535574,57.3310309 249.298275,55.4935493 250.823699,53.968125 C252.349124,52.4427007 254.186605,51.68 256.336199,51.68 L281.054949,51.68 C283.178877,51.68 285.009942,52.4427007 286.548199,53.968125 C288.086457,55.4935493 288.855574,57.3310309 288.855574,59.480625 L288.855574,84.199375 C288.855574,86.3489691 288.086457,88.1864507 286.548199,89.711875 C285.009942,91.2372993 283.178877,92 281.054949,92 L256.336199,92 Z M257.664966,84.5684777 L279.433574,84.5695 C280.468413,84.5695 281.052615,84.502709 281.186199,84.369125 C281.310242,84.2450827 281.376692,83.7324969 281.385552,82.8313536 L281.386574,61.0635 C281.386574,60.0286615 281.319783,59.444459 281.186199,59.310875 C281.052615,59.177291 280.468413,59.1105 279.433574,59.1105 L257.879699,59.1105 C256.845444,59.1105 256.261533,59.177291 256.127949,59.310875 C255.994365,59.444459 255.927574,60.0286615 255.927574,61.0635 L255.927574,82.6165 C255.927574,83.6513385 255.994365,84.235541 256.127949,84.369125 C256.251992,84.4931673 256.764326,84.5596176 257.664966,84.5684777 L257.664966,84.5684777 Z M295.015574,92 L295.015574,51.68 L303.122449,51.68 L327.866574,81.136 L327.866574,51.68 L335.335574,51.68 L335.335574,92 L327.228699,92 L302.407574,62.467 L302.407574,92 L295.015574,92 Z M341.719574,92 L341.719574,51.68 L378.820449,51.68 L378.820449,59.1105 L349.188574,59.1105 L349.188574,68.116 L373.032324,68.116 L373.032324,75.564 L349.188574,75.564 L349.188574,84.5695 L378.820449,84.5695 L378.820449,92 L341.719574,92 Z" id="path-2"></path>
    </defs>
    <g id="Page-1" stroke="none" stroke-width="1" fill="none" fill-rule="evenodd">
        <g id="Artboard" transform="translate(-597.000000, -100.000000)" fill-rule="nonzero">
            <g id="brimstonelogo" transform="translate(594.000000, 89.000000)">
                <g id="PROJEKT">
                    <use fill="#000000" xlink:href="#path-1"></use>
                    <use fill="#FFFFFF" xlink:href="#path-1"></use>
                </g>
                <g id="BRIMSTONE">
                    <use fill="#000000" xlink:href="#path-2"></use>
                    <use fill="#FFFFFF" xlink:href="#path-2"></use>
                </g>
            </g>
        </g>
    </g>
</svg>